<?xml version="1.0" encoding="UTF-8" standalone="no"?>
<!DOCTYPE svg PUBLIC "-//W3C//DTD SVG 1.1//EN"
 "http://www.w3.org/Graphics/SVG/1.1/DTD/svg11.dtd">
<!-- Generated by graphviz version 2.47.3 (20210619.1520)
 -->
<!-- Title: dependencies Pages: 1 -->
<svg width="2821pt" height="247pt"
 viewBox="0.00 0.00 2821.00 246.80" xmlns="http://www.w3.org/2000/svg" xmlns:xlink="http://www.w3.org/1999/xlink">
<g id="graph0" class="graph" transform="scale(1 1) rotate(0) translate(4 242.8)">
<title>dependencies</title>
<polygon fill="white" stroke="transparent" points="-4,4 -4,-242.8 2817,-242.8 2817,4 -4,4"/>
<text text-anchor="middle" x="1406.5" y="-8.2" font-family="sans-serif" font-size="14.00">dependencies</text>
<g id="clust1" class="cluster">
<title>cluster_AppModule</title>
<polygon fill="none" stroke="black" stroke-dasharray="1,5" points="8,-32.8 8,-230.8 2805,-230.8 2805,-32.8 8,-32.8"/>
</g>
<g id="clust19" class="cluster">
<title>cluster_AppModule_imports</title>
<polygon fill="none" stroke="black" points="2653,-40.8 2653,-92.8 2797,-92.8 2797,-40.8 2653,-40.8"/>
</g>
<g id="clust21" class="cluster">
<title>cluster_AppModule_bootstrap</title>
<polygon fill="none" stroke="black" points="1326,-170.8 1326,-222.8 1450,-222.8 1450,-170.8 1326,-170.8"/>
</g>
<g id="clust2" class="cluster">
<title>cluster_AppModule_declarations</title>
<polygon fill="none" stroke="black" points="16,-40.8 16,-92.8 2645,-92.8 2645,-40.8 16,-40.8"/>
</g>
<!-- AgregarImagenComponent -->
<g id="node1" class="node">
<title>AgregarImagenComponent</title>
<polygon fill="#ffffb3" stroke="black" points="2636.67,-84.8 2467.33,-84.8 2467.33,-48.8 2636.67,-48.8 2636.67,-84.8"/>
<text text-anchor="middle" x="2552" y="-62.6" font-family="Times,serif" font-size="14.00">AgregarImagenComponent</text>
</g>
<!-- AppModule -->
<g id="node17" class="node">
<title>AppModule</title>
<polygon fill="#8dd3c7" stroke="black" points="1429.66,-149.8 1426.66,-153.8 1405.66,-153.8 1402.66,-149.8 1346.34,-149.8 1346.34,-113.8 1429.66,-113.8 1429.66,-149.8"/>
<text text-anchor="middle" x="1388" y="-127.6" font-family="Times,serif" font-size="14.00">AppModule</text>
</g>
<!-- AgregarImagenComponent&#45;&gt;AppModule -->
<g id="edge1" class="edge">
<title>AgregarImagenComponent&#45;&gt;AppModule</title>
<path fill="none" stroke="black" d="M2552,-84.96C2552,-107.15 2552,-141.8 2552,-141.8 2552,-141.8 1439.77,-141.8 1439.77,-141.8"/>
<polygon fill="black" stroke="black" points="1439.77,-138.3 1429.77,-141.8 1439.77,-145.3 1439.77,-138.3"/>
</g>
<!-- AgregarUsuariosComponent -->
<g id="node2" class="node">
<title>AgregarUsuariosComponent</title>
<polygon fill="#ffffb3" stroke="black" points="2449.45,-84.8 2272.55,-84.8 2272.55,-48.8 2449.45,-48.8 2449.45,-84.8"/>
<text text-anchor="middle" x="2361" y="-62.6" font-family="Times,serif" font-size="14.00">AgregarUsuariosComponent</text>
</g>
<!-- AgregarUsuariosComponent&#45;&gt;AppModule -->
<g id="edge2" class="edge">
<title>AgregarUsuariosComponent&#45;&gt;AppModule</title>
<path fill="none" stroke="black" d="M2361,-85.08C2361,-106.12 2361,-137.8 2361,-137.8 2361,-137.8 1439.81,-137.8 1439.81,-137.8"/>
<polygon fill="black" stroke="black" points="1439.81,-134.3 1429.81,-137.8 1439.81,-141.3 1439.81,-134.3"/>
</g>
<!-- AppComponent -->
<g id="node3" class="node">
<title>AppComponent</title>
<polygon fill="#ffffb3" stroke="black" points="2254.94,-84.8 2149.06,-84.8 2149.06,-48.8 2254.94,-48.8 2254.94,-84.8"/>
<text text-anchor="middle" x="2202" y="-62.6" font-family="Times,serif" font-size="14.00">AppComponent</text>
</g>
<!-- AppComponent&#45;&gt;AppModule -->
<g id="edge3" class="edge">
<title>AppComponent&#45;&gt;AppModule</title>
<path fill="none" stroke="black" d="M2202,-85.11C2202,-104.95 2202,-133.8 2202,-133.8 2202,-133.8 1439.77,-133.8 1439.77,-133.8"/>
<polygon fill="black" stroke="black" points="1439.77,-130.3 1429.77,-133.8 1439.77,-137.3 1439.77,-130.3"/>
</g>
<!-- BoardAdminComponent -->
<g id="node4" class="node">
<title>BoardAdminComponent</title>
<polygon fill="#ffffb3" stroke="black" points="2131.43,-84.8 1976.57,-84.8 1976.57,-48.8 2131.43,-48.8 2131.43,-84.8"/>
<text text-anchor="middle" x="2054" y="-62.6" font-family="Times,serif" font-size="14.00">BoardAdminComponent</text>
</g>
<!-- BoardAdminComponent&#45;&gt;AppModule -->
<g id="edge4" class="edge">
<title>BoardAdminComponent&#45;&gt;AppModule</title>
<path fill="none" stroke="black" d="M2054,-85.02C2054,-103.63 2054,-129.8 2054,-129.8 2054,-129.8 1439.66,-129.8 1439.66,-129.8"/>
<polygon fill="black" stroke="black" points="1439.66,-126.3 1429.66,-129.8 1439.66,-133.3 1439.66,-126.3"/>
</g>
<!-- BoardModeratorComponent -->
<g id="node5" class="node">
<title>BoardModeratorComponent</title>
<polygon fill="#ffffb3" stroke="black" points="1958.13,-84.8 1783.87,-84.8 1783.87,-48.8 1958.13,-48.8 1958.13,-84.8"/>
<text text-anchor="middle" x="1871" y="-62.6" font-family="Times,serif" font-size="14.00">BoardModeratorComponent</text>
</g>
<!-- BoardModeratorComponent&#45;&gt;AppModule -->
<g id="edge5" class="edge">
<title>BoardModeratorComponent&#45;&gt;AppModule</title>
<path fill="none" stroke="black" d="M1871,-84.82C1871,-102.17 1871,-125.8 1871,-125.8 1871,-125.8 1440.02,-125.8 1440.02,-125.8"/>
<polygon fill="black" stroke="black" points="1440.02,-122.3 1430.02,-125.8 1440.02,-129.3 1440.02,-122.3"/>
</g>
<!-- BoardUserComponent -->
<g id="node6" class="node">
<title>BoardUserComponent</title>
<polygon fill="#ffffb3" stroke="black" points="1765.97,-84.8 1624.03,-84.8 1624.03,-48.8 1765.97,-48.8 1765.97,-84.8"/>
<text text-anchor="middle" x="1695" y="-62.6" font-family="Times,serif" font-size="14.00">BoardUserComponent</text>
</g>
<!-- BoardUserComponent&#45;&gt;AppModule -->
<g id="edge6" class="edge">
<title>BoardUserComponent&#45;&gt;AppModule</title>
<path fill="none" stroke="black" d="M1695,-84.81C1695,-100.85 1695,-121.8 1695,-121.8 1695,-121.8 1439.72,-121.8 1439.72,-121.8"/>
<polygon fill="black" stroke="black" points="1439.72,-118.3 1429.72,-121.8 1439.72,-125.3 1439.72,-118.3"/>
</g>
<!-- HomeComponent -->
<g id="node7" class="node">
<title>HomeComponent</title>
<polygon fill="#ffffb3" stroke="black" points="1605.55,-84.8 1490.45,-84.8 1490.45,-48.8 1605.55,-48.8 1605.55,-84.8"/>
<text text-anchor="middle" x="1548" y="-62.6" font-family="Times,serif" font-size="14.00">HomeComponent</text>
</g>
<!-- HomeComponent&#45;&gt;AppModule -->
<g id="edge7" class="edge">
<title>HomeComponent&#45;&gt;AppModule</title>
<path fill="none" stroke="black" d="M1548,-84.92C1548,-99.58 1548,-117.8 1548,-117.8 1548,-117.8 1440.04,-117.8 1440.04,-117.8"/>
<polygon fill="black" stroke="black" points="1440.04,-114.3 1430.04,-117.8 1440.04,-121.3 1440.04,-114.3"/>
</g>
<!-- ImagenDetallesComponent -->
<g id="node8" class="node">
<title>ImagenDetallesComponent</title>
<polygon fill="#ffffb3" stroke="black" points="1472.68,-84.8 1303.32,-84.8 1303.32,-48.8 1472.68,-48.8 1472.68,-84.8"/>
<text text-anchor="middle" x="1388" y="-62.6" font-family="Times,serif" font-size="14.00">ImagenDetallesComponent</text>
</g>
<!-- ImagenDetallesComponent&#45;&gt;AppModule -->
<g id="edge8" class="edge">
<title>ImagenDetallesComponent&#45;&gt;AppModule</title>
<path fill="none" stroke="black" d="M1388,-84.91C1388,-84.91 1388,-103.79 1388,-103.79"/>
<polygon fill="black" stroke="black" points="1384.5,-103.79 1388,-113.79 1391.5,-103.79 1384.5,-103.79"/>
</g>
<!-- ListaImagenesComponent -->
<g id="node9" class="node">
<title>ListaImagenesComponent</title>
<polygon fill="#ffffb3" stroke="black" points="1285.47,-84.8 1122.53,-84.8 1122.53,-48.8 1285.47,-48.8 1285.47,-84.8"/>
<text text-anchor="middle" x="1204" y="-62.6" font-family="Times,serif" font-size="14.00">ListaImagenesComponent</text>
</g>
<!-- ListaImagenesComponent&#45;&gt;AppModule -->
<g id="edge9" class="edge">
<title>ListaImagenesComponent&#45;&gt;AppModule</title>
<path fill="none" stroke="black" d="M1204,-84.92C1204,-99.58 1204,-117.8 1204,-117.8 1204,-117.8 1336.25,-117.8 1336.25,-117.8"/>
<polygon fill="black" stroke="black" points="1336.25,-121.3 1346.25,-117.8 1336.25,-114.3 1336.25,-121.3"/>
</g>
<!-- ListaUsuariosComponent -->
<g id="node10" class="node">
<title>ListaUsuariosComponent</title>
<polygon fill="#ffffb3" stroke="black" points="1104.59,-84.8 945.41,-84.8 945.41,-48.8 1104.59,-48.8 1104.59,-84.8"/>
<text text-anchor="middle" x="1025" y="-62.6" font-family="Times,serif" font-size="14.00">ListaUsuariosComponent</text>
</g>
<!-- ListaUsuariosComponent&#45;&gt;AppModule -->
<g id="edge10" class="edge">
<title>ListaUsuariosComponent&#45;&gt;AppModule</title>
<path fill="none" stroke="black" d="M1025,-84.81C1025,-100.85 1025,-121.8 1025,-121.8 1025,-121.8 1336,-121.8 1336,-121.8"/>
<polygon fill="black" stroke="black" points="1336,-125.3 1346,-121.8 1336,-118.3 1336,-125.3"/>
</g>
<!-- LoginComponent -->
<g id="node11" class="node">
<title>LoginComponent</title>
<polygon fill="#ffffb3" stroke="black" points="927.28,-84.8 812.72,-84.8 812.72,-48.8 927.28,-48.8 927.28,-84.8"/>
<text text-anchor="middle" x="870" y="-62.6" font-family="Times,serif" font-size="14.00">LoginComponent</text>
</g>
<!-- LoginComponent&#45;&gt;AppModule -->
<g id="edge11" class="edge">
<title>LoginComponent&#45;&gt;AppModule</title>
<path fill="none" stroke="black" d="M870,-84.82C870,-102.17 870,-125.8 870,-125.8 870,-125.8 1336.05,-125.8 1336.05,-125.8"/>
<polygon fill="black" stroke="black" points="1336.05,-129.3 1346.05,-125.8 1336.05,-122.3 1336.05,-129.3"/>
</g>
<!-- No404Component -->
<g id="node12" class="node">
<title>No404Component</title>
<polygon fill="#ffffb3" stroke="black" points="794.94,-84.8 675.06,-84.8 675.06,-48.8 794.94,-48.8 794.94,-84.8"/>
<text text-anchor="middle" x="735" y="-62.6" font-family="Times,serif" font-size="14.00">No404Component</text>
</g>
<!-- No404Component&#45;&gt;AppModule -->
<g id="edge12" class="edge">
<title>No404Component&#45;&gt;AppModule</title>
<path fill="none" stroke="black" d="M735,-85.02C735,-103.63 735,-129.8 735,-129.8 735,-129.8 1336.16,-129.8 1336.16,-129.8"/>
<polygon fill="black" stroke="black" points="1336.16,-133.3 1346.16,-129.8 1336.16,-126.3 1336.16,-133.3"/>
</g>
<!-- ProfileComponent -->
<g id="node13" class="node">
<title>ProfileComponent</title>
<polygon fill="#ffffb3" stroke="black" points="657.93,-84.8 538.07,-84.8 538.07,-48.8 657.93,-48.8 657.93,-84.8"/>
<text text-anchor="middle" x="598" y="-62.6" font-family="Times,serif" font-size="14.00">ProfileComponent</text>
</g>
<!-- ProfileComponent&#45;&gt;AppModule -->
<g id="edge13" class="edge">
<title>ProfileComponent&#45;&gt;AppModule</title>
<path fill="none" stroke="black" d="M598,-85.11C598,-104.95 598,-133.8 598,-133.8 598,-133.8 1336.08,-133.8 1336.08,-133.8"/>
<polygon fill="black" stroke="black" points="1336.08,-137.3 1346.08,-133.8 1336.08,-130.3 1336.08,-137.3"/>
</g>
<!-- RegisterComponent -->
<g id="node14" class="node">
<title>RegisterComponent</title>
<polygon fill="#ffffb3" stroke="black" points="519.98,-84.8 392.02,-84.8 392.02,-48.8 519.98,-48.8 519.98,-84.8"/>
<text text-anchor="middle" x="456" y="-62.6" font-family="Times,serif" font-size="14.00">RegisterComponent</text>
</g>
<!-- RegisterComponent&#45;&gt;AppModule -->
<g id="edge14" class="edge">
<title>RegisterComponent&#45;&gt;AppModule</title>
<path fill="none" stroke="black" d="M456,-85.08C456,-106.12 456,-137.8 456,-137.8 456,-137.8 1336.14,-137.8 1336.14,-137.8"/>
<polygon fill="black" stroke="black" points="1336.14,-141.3 1346.14,-137.8 1336.14,-134.3 1336.14,-141.3"/>
</g>
<!-- SearchImagesComponent -->
<g id="node15" class="node">
<title>SearchImagesComponent</title>
<polygon fill="#ffffb3" stroke="black" points="373.84,-84.8 214.16,-84.8 214.16,-48.8 373.84,-48.8 373.84,-84.8"/>
<text text-anchor="middle" x="294" y="-62.6" font-family="Times,serif" font-size="14.00">SearchImagesComponent</text>
</g>
<!-- SearchImagesComponent&#45;&gt;AppModule -->
<g id="edge15" class="edge">
<title>SearchImagesComponent&#45;&gt;AppModule</title>
<path fill="none" stroke="black" d="M294,-84.96C294,-107.15 294,-141.8 294,-141.8 294,-141.8 1336.12,-141.8 1336.12,-141.8"/>
<polygon fill="black" stroke="black" points="1336.12,-145.3 1346.12,-141.8 1336.12,-138.3 1336.12,-145.3"/>
</g>
<!-- UsuarioDetallesComponent -->
<g id="node16" class="node">
<title>UsuarioDetallesComponent</title>
<polygon fill="#ffffb3" stroke="black" points="195.52,-84.8 24.48,-84.8 24.48,-48.8 195.52,-48.8 195.52,-84.8"/>
<text text-anchor="middle" x="110" y="-62.6" font-family="Times,serif" font-size="14.00">UsuarioDetallesComponent</text>
</g>
<!-- UsuarioDetallesComponent&#45;&gt;AppModule -->
<g id="edge16" class="edge">
<title>UsuarioDetallesComponent&#45;&gt;AppModule</title>
<path fill="none" stroke="black" d="M110,-85.12C110,-108.46 110,-145.8 110,-145.8 110,-145.8 1336.21,-145.8 1336.21,-145.8"/>
<polygon fill="black" stroke="black" points="1336.21,-149.3 1346.21,-145.8 1336.21,-142.3 1336.21,-149.3"/>
</g>
<!-- AppComponent  -->
<g id="node19" class="node">
<title>AppComponent </title>
<polygon fill="#80b1d3" stroke="black" points="1442.44,-214.8 1333.56,-214.8 1333.56,-178.8 1442.44,-178.8 1442.44,-214.8"/>
<text text-anchor="middle" x="1388" y="-192.6" font-family="Times,serif" font-size="14.00">AppComponent </text>
</g>
<!-- AppModule&#45;&gt;AppComponent  -->
<g id="edge18" class="edge">
<title>AppModule&#45;&gt;AppComponent </title>
<path fill="none" stroke="black" stroke-dasharray="1,5" d="M1388,-149.91C1388,-149.91 1388,-168.79 1388,-168.79"/>
<polygon fill="black" stroke="black" points="1384.5,-168.79 1388,-178.79 1391.5,-168.79 1384.5,-168.79"/>
</g>
<!-- AppRoutingModule -->
<g id="node18" class="node">
<title>AppRoutingModule</title>
<polygon fill="#8dd3c7" stroke="black" points="2789.27,-84.8 2786.27,-88.8 2765.27,-88.8 2762.27,-84.8 2660.73,-84.8 2660.73,-48.8 2789.27,-48.8 2789.27,-84.8"/>
<text text-anchor="middle" x="2725" y="-62.6" font-family="Times,serif" font-size="14.00">AppRoutingModule</text>
</g>
<!-- AppRoutingModule&#45;&gt;AppModule -->
<g id="edge17" class="edge">
<title>AppRoutingModule&#45;&gt;AppModule</title>
<path fill="none" stroke="black" d="M2725,-85.12C2725,-108.46 2725,-145.8 2725,-145.8 2725,-145.8 1439.85,-145.8 1439.85,-145.8"/>
<polygon fill="black" stroke="black" points="1439.85,-142.3 1429.85,-145.8 1439.85,-149.3 1439.85,-142.3"/>
</g>
</g>
</svg>
